<?xml version="1.0" encoding="utf-8"?>
<!-- Generator: Adobe Illustrator 15.0.0, SVG Export Plug-In . SVG Version: 6.00 Build 0)  -->
<!DOCTYPE svg PUBLIC "-//W3C//DTD SVG 1.1//EN" "http://www.w3.org/Graphics/SVG/1.1/DTD/svg11.dtd">
<svg version="1.1" id="Layer_1" xmlns="http://www.w3.org/2000/svg" xmlns:xlink="http://www.w3.org/1999/xlink" x="0px" y="0px"
	 width="700px" height="700px" viewBox="0 0 700 700" enable-background="new 0 0 700 700" xml:space="preserve">
<path fill="#FFFFFF" d="M392.668,486.994c0,4.174-3.382,7.559-7.555,7.559h-67.148c-4.172,0-7.555-3.385-7.555-7.559l0,0
	c0-4.17,3.383-7.553,7.555-7.553h67.148C389.286,479.441,392.668,482.824,392.668,486.994L392.668,486.994z"/>
<path fill="#FFFFFF" d="M392.668,504.623c0,4.168-3.382,7.553-7.555,7.553h-67.148c-4.172,0-7.555-3.385-7.555-7.553l0,0
	c0-4.176,3.383-7.555,7.555-7.555h67.148C389.286,497.068,392.668,500.447,392.668,504.623L392.668,504.623z"/>
<polygon fill="#FFFFFF" points="363.709,546.439 378.398,532.742 325.52,532.742 337.689,546.439 "/>
<path fill="none" stroke="#FFFFFF" stroke-width="20" stroke-miterlimit="10" d="M387.277,465.619c0,0,12.17-5.037,14.27-19.305
	c0,0-0.84-31.896,9.653-39.869c0,0,26.858-36.514,28.537-60.015c0,0,7.134-29.377-3.356-54.139c0,0-16.788-52.041-84.776-53.719
	c0,0-53.719-4.197-81.417,48.263c0,0-18.467,26.02-2.52,77.641c0,0,18.466,35.252,22.664,39.869c0,0,10.073,15.947,10.493,33.996
	c0,0-0.841,23.922,14.268,27.277H387.277z"/>
<path fill="none" stroke="#FFFFFF" stroke-width="12" stroke-miterlimit="10" d="M336.535,455.676"/>
<path fill="#FFFFFF" d="M368.85,460.578c0,2.783-2.255,5.041-5.035,5.041H341.57c-2.78,0-5.035-2.258-5.035-5.041v-15.945
	c0-2.783,2.255-5.037,5.035-5.037h22.244c2.78,0,5.035,2.254,5.035,5.037V460.578z"/>
<path fill="#FFFFFF" d="M371.423,353.313c0.121-0.92,0.965-1.566,1.886-1.443l0,0c0.917,0.123,1.563,0.967,1.441,1.885
	l-11.831,89.031c-0.121,0.916-0.965,1.564-1.884,1.441l0,0c-0.92-0.121-1.564-0.967-1.443-1.887L371.423,353.313z"/>
<path fill="#FFFFFF" d="M332.28,354.344c-0.089-0.922,0.589-1.742,1.512-1.83l0,0c0.924-0.09,1.742,0.588,1.831,1.51l8.522,89.406
	c0.09,0.924-0.587,1.744-1.512,1.832l0,0c-0.922,0.088-1.741-0.588-1.829-1.512L332.28,354.344z"/>
<g>
	<g>
		<path fill="#FFFFFF" d="M330.737,322.127c-17.331,1.204-14.687,24.322-3.674,32.009c6.24,4.355,14.944,1.742,20.261-2.736
			c5.27-4.439,8.552-12.318,8.404-19.146c-0.145-6.716-4.383-10.395-11.078-9.643c-6.398,0.72-10.149,5.862-9.953,12.054
			c0.523,16.575,17.262,26.415,31.965,18.5c9.208-4.958,11.513-16.904,6.11-25.633c-2.269-3.666-5.683-5.189-9.926-4.079
			c-6.554,1.716-6.532,9.28-6.61,14.842c-0.088,6.185,1.739,12.022,7.314,15.279c6.001,3.506,13.688,2.648,19.585-0.385
			c10.597-5.45,15.337-23.376,2.688-29.144c-2.331-1.063-9.401,2.295-6.139,3.783c8.827,4.025,6.836,15.423,0.995,21.251
			c-3.385,3.377-8.532,2.598-12.221-0.052c-3.887-2.792-4.538-8.318-4.477-12.724c0.031-2.237,0.255-4.465,0.621-6.669
			c0.155-0.935,0.386-1.943,0.794-2.803c-0.889,1.873-3.888,0.01-2.216,0.896c2.235,1.186,3.325,4.591,3.968,6.813
			c1.894,6.558,0.166,14.867-7.183,16.792c-8.272,2.164-14.585-6.35-16.688-13.177c-0.912-2.962-1.208-15.684,3.484-9.396
			c4.097,5.488-0.773,15.6-4.317,19.982c-6.255,7.736-13.509-1.555-15.545-7.87c-1.013-3.143-2.513-14.013,2.802-14.382
			C333.55,326.223,336.087,321.756,330.737,322.127L330.737,322.127z"/>
	</g>
</g>
<path fill="#FFFFFF" d="M485.806,255.522c2.6-1.698,6.085-0.97,7.783,1.632l0,0c1.699,2.601,0.969,6.084-1.633,7.785l-24.949,16.299
	c-2.6,1.701-6.086,0.969-7.787-1.629l0,0c-1.696-2.602-0.966-6.087,1.635-7.785L485.806,255.522z"/>
<path fill="#FFFFFF" d="M431.427,198.105c1.415-2.764,4.805-3.86,7.568-2.444l0,0c2.766,1.416,3.86,4.803,2.442,7.57l-13.576,26.531
	c-1.415,2.766-4.805,3.86-7.568,2.444l0,0c-2.766-1.416-3.86-4.804-2.444-7.568L431.427,198.105z"/>
<path fill="#FFFFFF" d="M346.635,178.595c-0.048-3.105,2.43-5.662,5.536-5.709l0,0c3.106-0.047,5.661,2.432,5.708,5.54l0.451,29.798
	c0.048,3.107-2.432,5.662-5.537,5.709l0,0c-3.105,0.046-5.663-2.432-5.707-5.538L346.635,178.595z"/>
<path fill="#FFFFFF" d="M262.138,208.212c-1.735-2.577-1.052-6.07,1.522-7.806l0,0c2.577-1.735,6.072-1.054,7.805,1.524
	l16.647,24.721c1.735,2.577,1.056,6.072-1.523,7.806l0,0c-2.576,1.735-6.07,1.053-7.805-1.523L262.138,208.212z"/>
<path fill="#FFFFFF" d="M212.25,265.009c-2.607-1.687-3.356-5.167-1.67-7.776l0,0c1.689-2.609,5.17-3.356,7.779-1.666l25.024,16.184
	c2.609,1.688,3.355,5.169,1.669,7.779l0,0c-1.688,2.606-5.168,3.354-7.776,1.667L212.25,265.009z"/>
<path fill="#FFFFFF" d="M393.717,522.633c0,4.168-3.381,7.551-7.554,7.551h-67.148c-4.172,0-7.555-3.383-7.555-7.551l0,0
	c0-4.176,3.383-7.555,7.555-7.555h67.148C390.336,515.078,393.717,518.457,393.717,522.633L393.717,522.633z"/>
<circle fill="none" stroke="#FFFFFF" stroke-width="30" stroke-linecap="round" stroke-linejoin="round" stroke-miterlimit="10" cx="350" cy="350" r="238.807"/>
</svg>
