<svg height="512pt" viewBox="-15 0 512 512.00138" width="512pt" xmlns="http://www.w3.org/2000/svg"><path d="m446.929688 214.835938 23.152343-23.152344c14.109375-14.113282 15.851563-36.535156 4.042969-52.15625-5.425781-7.179688-12.828125-12.171875-21.160156-14.453125l6.957031-6.957031c14.636719-14.636719 15.71875-39.035157 2.414063-54.394532-5.386719-6.21875-12.476563-10.527344-20.265626-12.507812.019532-.503906.039063-1.011719.039063-1.519532 0-10.589843-4.125-20.550781-11.613281-28.039062-15.464844-15.460938-40.621094-15.460938-56.078125 0l-7.425781 7.421875c-1.757813-6.40625-5.136719-12.457031-10.164063-17.484375-15.460937-15.460938-40.617187-15.457031-56.078125 0l-77.78125 77.785156c5.527344-16.566406-.261719-35.417968-15.101562-45.808594-8.945313-6.265624-19.78125-8.609374-30.519532-6.605468-10.734375 2.003906-19.992187 8.105468-26.074218 17.171875l-44.699219 66.660156c-17.261719 25.738281-26.359375 55.726563-26.316407 86.714844l.023438 16.011719c.023438 16.191406-6.269531 31.417968-17.722656 42.867187l-59.628906 59.628906c-3.90625 3.90625-3.90625 10.238281 0 14.140625 1.953124 1.953125 4.511718 2.929688 7.070312 2.929688s5.117188-.976563 7.070312-2.929688l59.632813-59.628906c15.234375-15.234375 23.605469-35.492188 23.578125-57.035156l-.023438-16.015625c-.039062-26.996094 7.890626-53.121094 22.925782-75.546875l44.699218-66.660156c3.0625-4.566407 7.726563-7.640626 13.136719-8.648438 5.414063-1.011719 10.867188.171875 15.375 3.324219 8.734375 6.117187 11.246094 18.046875 5.71875 27.164062l-17.464843 28.8125c-3.828126 6.3125-2.386719 14.195313 3.417968 18.753907 5.804688 4.554687 13.808594 4.070312 19.03125-1.148438l107.796875-107.792969c7.660157-7.664062 20.132813-7.664062 27.792969 0 7.179688 7.179688 7.632812 18.578125 1.359375 26.289063l-54.96875 55.113281c-3.902344 3.90625-3.902344 10.238281 0 14.144531 3.90625 3.902344 10.238281 3.902344 14.144531 0l85.335938-85.484375c7.660156-7.664062 20.132812-7.664062 27.792968 0 3.714844 3.710938 5.757813 8.644531 5.757813 13.894531s-2.042969 10.1875-5.757813 13.898438l-111.183593 111.183594c-3.902344 3.90625-3.902344 10.238281 0 14.144531 1.953125 1.953125 4.511719 2.925781 7.070312 2.925781 2.558594 0 5.121094-.972656 7.070313-2.925781l80.8125-80.816406c7.714844-6.273438 19.113281-5.824219 26.292968 1.359375 7.664063 7.660156 7.664063 20.132812 0 27.792968l-79.457031 79.3125c-3.902343 3.902344-3.902343 10.234376 0 14.140626 3.90625 3.902343 10.238281 3.902343 14.144531 0l33.003907-32.859376c7.710937-6.269531 19.109375-5.820312 26.289062 1.359376 3.710938 3.714843 5.753907 8.648437 5.753907 13.898437s-2.042969 10.1875-5.753907 13.898437l-90.550781 90.550782c-25.195312 25.191406-60.054688 39.628906-95.683594 39.628906-.101562 0-.203125 0-.304687 0-21.5 0-41.714844 8.371094-56.921875 23.578125l-88.191406 88.195313c-3.90625 3.90625-3.90625 10.238281 0 14.140624 1.953124 1.953126 4.511718 2.929688 7.070312 2.929688s5.117188-.976562 7.070312-2.929688l88.195313-88.195312c11.429687-11.425781 26.617187-17.71875 42.777344-17.71875h.304687c40.890625 0 80.90625-16.570312 109.820313-45.488281l90.554687-90.550781c2.253906-2.253907 4.167969-4.71875 5.765625-7.324219 3.746094.761719 7.210938 2.585937 9.957031 5.332031 7.664063 7.664062 7.664063 20.132812 0 27.796875l-90.554687 90.550781c-25.558594 25.558594-59.527344 39.628906-95.667969 39.628906-.101562 0-.207031 0-.308594 0-21.195312 0-41.9375 8.589844-56.925781 23.578126l-74.1875 74.1875c-3.90625 3.902343-3.90625 10.234374 0 14.140624 1.953125 1.953126 4.511719 2.929688 7.070313 2.929688s5.117187-.976562 7.070312-2.929688l74.1875-74.1875c11.261719-11.265624 26.851563-17.71875 42.78125-17.71875h.3125c41.480469-.003906 80.472656-16.152343 109.808594-45.488281l90.554688-90.550781c7.488281-7.492188 11.613281-17.449219 11.613281-28.039062 0-10.59375-4.125-20.550782-11.613281-28.039063-4.894532-4.894531-10.914063-8.375-17.46875-10.179687zm-23.855469-129.679688 7.421875-7.421875c2.242187-2.238281 4.171875-4.703125 5.789062-7.339844 4.207032.867188 8.054688 3.101563 10.9375 6.425781 6.101563 7.042969 5.710938 19.003907-.632812 26.253907-1.644532-2.765625-3.65625-5.375-6.03125-7.753907-5.027344-5.023437-11.078125-8.402343-17.484375-10.164062zm-6.023438 89.75 23.503907-23.507812c2.257812-2.257813 4.175781-4.726563 5.777343-7.335938 4.664063.945312 8.847657 3.5625 11.839844 7.523438 5.820313 7.703124 4.863281 18.863281-2.230469 25.957031l-15.339844 15.335937c-1.652343-2.785156-3.671874-5.414062-6.066406-7.808594-5.027344-5.023437-11.078125-8.40625-17.484375-10.164062zm0 0"/><path d="m69.84375 492.003906c-2.640625 0-5.210938 1.066406-7.078125 2.929688-1.859375 1.859375-2.921875 4.4375-2.921875 7.066406 0 2.632812 1.0625 5.210938 2.921875 7.070312 1.867187 1.859376 4.4375 2.929688 7.078125 2.929688 2.628906 0 5.199219-1.070312 7.070312-2.929688 1.859376-1.859374 2.929688-4.4375 2.929688-7.070312 0-2.628906-1.070312-5.207031-2.929688-7.066406-1.859374-1.863282-4.441406-2.929688-7.070312-2.929688zm0 0"/><path d="m277.375 146.988281c1.859375-1.863281 2.933594-4.441406 2.933594-7.070312 0-2.640625-1.070313-5.210938-2.933594-7.070313-1.859375-1.871094-4.4375-2.929687-7.066406-2.929687-2.640625 0-5.222656 1.058593-7.070313 2.929687-1.871093 1.859375-2.941406 4.429688-2.941406 7.070313 0 2.628906 1.070313 5.207031 2.941406 7.070312 1.859375 1.859375 4.429688 2.929688 7.070313 2.929688 2.628906 0 5.195312-1.074219 7.066406-2.929688zm0 0"/></svg>