<?xml version="1.0" encoding="utf-8"?>
<!-- Generator: Adobe Illustrator 15.0.0, SVG Export Plug-In . SVG Version: 6.00 Build 0)  -->
<!DOCTYPE svg PUBLIC "-//W3C//DTD SVG 1.1//EN" "http://www.w3.org/Graphics/SVG/1.1/DTD/svg11.dtd">
<svg version="1.1" id="Layer_1" xmlns="http://www.w3.org/2000/svg" xmlns:xlink="http://www.w3.org/1999/xlink" x="0px" y="0px"
	 width="700px" height="700px" viewBox="0 0 700 700" enable-background="new 0 0 700 700" xml:space="preserve">
<circle fill="none" stroke="#FFFFFF" stroke-width="30" stroke-linecap="round" stroke-linejoin="round" stroke-miterlimit="10" cx="350" cy="351.196" r="238.807"/>
<path fill="#FFFFFF" d="M404,383c2,20.5,21.5,59,21.5,59c10.5,6.5,31.5-20,45.5-61.5s22.5-39,22.5-39c35-17,45.5-22,45.5-25.5
	s-11,4.5-9,1.5s7.5-8,5-9s-21.5,15-21.5,15C517,308,503,302,503,302c-8-7-17.5,17.5-17.5,17.5C479,319.5,466,354,466,354
	c-2.5,10.5-27,38-27,38s-1-49-4.5-70.5s-50.944-32-50.944-32c-16.712-5.586-15.819-26.669-15.237-32.49
	c0.146-0.664,0.308-1.333,0.49-2.01c0,0,3.514-5.965,4.97-10.094C376.394,241.986,379,240,379,240
	c7.762-12.328,3.435-17.981,2.625-18.871c0.49-4.465,4.35-48.313-33.204-49.598c-1.574-0.125-2.879-0.135-3.801-0.112
	c-0.876-0.022-2.101-0.014-3.579,0.099C300.441,172.645,307,221.5,307,221.5c-0.055,0.772-0.094,1.502-0.124,2.211
	c-0.6,1.858-0.88,4.723,0.384,8.749c0.694,4.124,2.102,6.143,3.502,7.408c0.027,0.044,0.051,0.087,0.079,0.132
	c0,0,1.62,1.258,3.575,3.24c0.03,0.084,0.06,0.168,0.083,0.26c1,4,5.5,11.5,5.5,11.5c0.941,3.423,1.391,6.679,1.503,9.734
	c-0.448,8.617-3.284,20.732-15.138,24.766c0,0-46.613,10.5-50.052,32s-4.421,70.5-4.421,70.5s-24.071-27.5-26.527-38
	c0,0-12.772-34.5-19.159-34.5c0,0-9.333-24.5-17.193-17.5c0,0-13.755,6-10.316,21.5c0,0-18.667-16-21.123-15
	c-2.457,1,2.947,6,4.912,9s-8.843-5-8.843-1.5s10.316,8.5,44.704,25.5c0,0,8.351-2.5,22.105,39s34.388,68,44.703,61.5
	c0,0,19.159-38.5,21.124-59s7.86,89.5-11.299,99c0,0-97.267-16-100.705,16.5s127.724,98,160.638,77.5
	c0.578-0.359,1.146-0.804,1.708-1.312c0.317,0.314,0.685,0.583,1.103,0.793c4.823,3.917,11.416,5.571,18.605,4.34
	c1.369-0.234,2.315-0.868,2.896-1.704C398.943,591.065,521.354,529.641,518,498.5C514.5,466,415.5,482,415.5,482
	C396,472.5,402,362.5,404,383z M494.999,315.061c0-0.021,0.001-0.041,0.001-0.061c0.003-2.726,2.272-5,5-5c2.724,0,5.003,2.274,5,5
	c-0.003,2.513-0.716,4.686-2.465,6.536c-1.872,1.98-5.185,1.886-7.07,0C493.684,319.754,493.609,317.031,494.999,315.061z
	 M191,324.019c-6.449,0-6.449-10,0-10S197.449,324.019,191,324.019z"/>
</svg>
