<?xml version="1.0" encoding="utf-8"?>
<!-- Generator: Adobe Illustrator 15.0.0, SVG Export Plug-In . SVG Version: 6.00 Build 0)  -->
<!DOCTYPE svg PUBLIC "-//W3C//DTD SVG 1.1//EN" "http://www.w3.org/Graphics/SVG/1.1/DTD/svg11.dtd">
<svg version="1.1" id="Layer_1" xmlns="http://www.w3.org/2000/svg" xmlns:xlink="http://www.w3.org/1999/xlink" x="0px" y="0px"
	 width="700px" height="700px" viewBox="0 0 700 700" enable-background="new 0 0 700 700" xml:space="preserve">
<circle fill="none" stroke="#FFFFFF" stroke-width="30" stroke-linecap="round" stroke-linejoin="round" stroke-miterlimit="10" cx="350" cy="351.196" r="238.807"/>
<path fill="none" stroke="#FFFFFF" stroke-width="14" stroke-miterlimit="10" d="M351.824,467.797
	c0,0,136.437-115.441-1.711-235.913C350.113,231.884,222.018,340.792,351.824,467.797z"/>
<path fill="none" stroke="#FFFFFF" stroke-width="14" stroke-miterlimit="10" d="M354.168,467.779
	c0,0,171.071-51.721,92.173-217.167C446.341,250.612,285.515,299.651,354.168,467.779z"/>
<path fill="none" stroke="#FFFFFF" stroke-width="14" stroke-miterlimit="10" d="M352.217,467.793
	c0,0-172.337-49.229-95.604-215.805C256.613,251.988,418.636,298.686,352.217,467.793z"/>
<path fill="none" stroke="#FFFFFF" stroke-width="14" stroke-miterlimit="10" d="M357.771,470.289
	c0,0,178.439,10.006,160.985-172.458C518.756,297.831,350.862,288.815,357.771,470.289z"/>
<path fill="none" stroke="#FFFFFF" stroke-width="14" stroke-miterlimit="10" d="M353.564,470.32
	c0,0-186.777,12.656-171.204-170.048C182.361,300.272,358.106,288.763,353.564,470.32z"/>
</svg>
